<svg width="190" height="119" viewBox="0 0 190 119" fill="none" xmlns="http://www.w3.org/2000/svg">
<mask id="mask0_352_1676" style="mask-type:luminance" maskUnits="userSpaceOnUse" x="-64" y="0" width="254" height="254">
<path d="M63.3 253.1C133.164 253.1 189.8 196.464 189.8 126.6C189.8 56.7361 133.164 0.100098 63.3 0.100098C-6.56397 0.100098 -63.2 56.7361 -63.2 126.6C-63.2 196.464 -6.56397 253.1 63.3 253.1Z" fill="white"/>
</mask>
<g mask="url(#mask0_352_1676)">
<g opacity="0.51">
<path d="M12.5 -1.40005C12.5 -0.100048 11.4 0.999951 10 0.999951C8.6 0.999951 7.5 -0.100048 7.5 -1.40005C7.5 -2.70005 8.6 -3.80005 10 -3.80005C11.4 -3.80005 12.5 -2.70005 12.5 -1.40005Z" fill="white"/>
<path d="M33.4 -1.40005C33.4 -0.100048 32.3 0.999951 30.9 0.999951C29.5 0.999951 28.4 -0.100048 28.4 -1.40005C28.4 -2.70005 29.5 -3.80005 30.9 -3.80005C32.3 -3.80005 33.4 -2.70005 33.4 -1.40005Z" fill="white"/>
<path d="M54.3 -1.40005C54.3 -0.100048 53.2 0.999951 51.8 0.999951C50.4 0.999951 49.3 -0.100048 49.3 -1.40005C49.3 -2.70005 50.4 -3.80005 51.8 -3.80005C53.1 -3.80005 54.3 -2.70005 54.3 -1.40005Z" fill="white"/>
<path d="M75.2 -1.40005C75.2 -0.100048 74.1 0.999951 72.7 0.999951C71.3 0.999951 70.2 -0.100048 70.2 -1.40005C70.2 -2.70005 71.3 -3.80005 72.7 -3.80005C74 -3.80005 75.2 -2.70005 75.2 -1.40005Z" fill="white"/>
<path d="M96 -1.40005C96 -0.100048 94.9 0.999951 93.5 0.999951C92.1 0.999951 91 -0.100048 91 -1.40005C91 -2.70005 92.1 -3.80005 93.5 -3.80005C94.9 -3.80005 96 -2.70005 96 -1.40005Z" fill="white"/>
<path d="M116.9 -1.40005C116.9 -0.100048 115.8 0.999951 114.4 0.999951C113 0.999951 111.9 -0.100048 111.9 -1.40005C111.9 -2.70005 113 -3.80005 114.4 -3.80005C115.8 -3.80005 116.9 -2.70005 116.9 -1.40005Z" fill="white"/>
<path d="M137.8 -1.40005C137.8 -0.100048 136.7 0.999951 135.3 0.999951C133.9 0.999951 132.8 -0.100048 132.8 -1.40005C132.8 -2.70005 133.9 -3.80005 135.3 -3.80005C136.6 -3.80005 137.8 -2.70005 137.8 -1.40005Z" fill="white"/>
<path d="M158.6 -1.40005C158.6 -0.100048 157.5 0.999951 156.1 0.999951C154.7 0.999951 153.6 -0.100048 153.6 -1.40005C153.6 -2.70005 154.7 -3.80005 156.1 -3.80005C157.5 -3.80005 158.6 -2.70005 158.6 -1.40005Z" fill="white"/>
<path d="M177 0.999951C178.381 0.999951 179.5 -0.0745649 179.5 -1.40005C179.5 -2.72553 178.381 -3.80005 177 -3.80005C175.619 -3.80005 174.5 -2.72553 174.5 -1.40005C174.5 -0.0745649 175.619 0.999951 177 0.999951Z" fill="white"/>
<path d="M12.5 13.7999C12.5 15.0999 11.4 16.1999 10 16.1999C8.6 16.1999 7.5 15.0999 7.5 13.7999C7.5 12.4999 8.6 11.3999 10 11.3999C11.4 11.3999 12.5 12.3999 12.5 13.7999Z" fill="white"/>
<path d="M33.4 13.7999C33.4 15.0999 32.3 16.1999 30.9 16.1999C29.5 16.1999 28.4 15.0999 28.4 13.7999C28.4 12.4999 29.5 11.3999 30.9 11.3999C32.3 11.3999 33.4 12.3999 33.4 13.7999Z" fill="white"/>
<path d="M54.3 13.7999C54.3 15.0999 53.2 16.1999 51.8 16.1999C50.4 16.1999 49.3 15.0999 49.3 13.7999C49.3 12.4999 50.4 11.3999 51.8 11.3999C53.1 11.3999 54.3 12.3999 54.3 13.7999Z" fill="white"/>
<path d="M75.2 13.7999C75.2 15.0999 74.1 16.1999 72.7 16.1999C71.3 16.1999 70.2 15.0999 70.2 13.7999C70.2 12.4999 71.3 11.3999 72.7 11.3999C74 11.3999 75.2 12.3999 75.2 13.7999Z" fill="white"/>
<path d="M96 13.7999C96 15.0999 94.9 16.1999 93.5 16.1999C92.1 16.1999 91 15.0999 91 13.7999C91 12.4999 92.1 11.3999 93.5 11.3999C94.9 11.3999 96 12.3999 96 13.7999Z" fill="white"/>
<path d="M116.9 13.7999C116.9 15.0999 115.8 16.1999 114.4 16.1999C113 16.1999 111.9 15.0999 111.9 13.7999C111.9 12.4999 113 11.3999 114.4 11.3999C115.8 11.3999 116.9 12.3999 116.9 13.7999Z" fill="white"/>
<path d="M137.8 13.7999C137.8 15.0999 136.7 16.1999 135.3 16.1999C133.9 16.1999 132.8 15.0999 132.8 13.7999C132.8 12.4999 133.9 11.3999 135.3 11.3999C136.6 11.3999 137.8 12.3999 137.8 13.7999Z" fill="white"/>
<path d="M158.6 13.7999C158.6 15.0999 157.5 16.1999 156.1 16.1999C154.7 16.1999 153.6 15.0999 153.6 13.7999C153.6 12.4999 154.7 11.3999 156.1 11.3999C157.5 11.3999 158.6 12.3999 158.6 13.7999Z" fill="white"/>
<path d="M177 16.1999C178.381 16.1999 179.5 15.1254 179.5 13.7999C179.5 12.4744 178.381 11.3999 177 11.3999C175.619 11.3999 174.5 12.4744 174.5 13.7999C174.5 15.1254 175.619 16.1999 177 16.1999Z" fill="white"/>
<path d="M12.5 29.0001C12.5 30.3001 11.4 31.4001 10 31.4001C8.6 31.4001 7.5 30.3001 7.5 29.0001C7.5 27.7001 8.6 26.6001 10 26.6001C11.4 26.5001 12.5 27.6001 12.5 29.0001Z" fill="white"/>
<path d="M33.4 29.0001C33.4 30.3001 32.3 31.4001 30.9 31.4001C29.5 31.4001 28.4 30.3001 28.4 29.0001C28.4 27.7001 29.5 26.6001 30.9 26.6001C32.3 26.5001 33.4 27.6001 33.4 29.0001Z" fill="white"/>
<path d="M54.3 29.0001C54.3 30.3001 53.2 31.4001 51.8 31.4001C50.4 31.4001 49.3 30.3001 49.3 29.0001C49.3 27.7001 50.4 26.6001 51.8 26.6001C53.1 26.5001 54.3 27.6001 54.3 29.0001Z" fill="white"/>
<path d="M75.2 29.0001C75.2 30.3001 74.1 31.4001 72.7 31.4001C71.3 31.4001 70.2 30.3001 70.2 29.0001C70.2 27.7001 71.3 26.6001 72.7 26.6001C74 26.5001 75.2 27.6001 75.2 29.0001Z" fill="white"/>
<path d="M96 29.0001C96 30.3001 94.9 31.4001 93.5 31.4001C92.1 31.4001 91 30.3001 91 29.0001C91 27.7001 92.1 26.6001 93.5 26.6001C94.9 26.5001 96 27.6001 96 29.0001Z" fill="white"/>
<path d="M116.9 29.0001C116.9 30.3001 115.8 31.4001 114.4 31.4001C113 31.4001 111.9 30.3001 111.9 29.0001C111.9 27.7001 113 26.6001 114.4 26.6001C115.8 26.5001 116.9 27.6001 116.9 29.0001Z" fill="white"/>
<path d="M137.8 29.0001C137.8 30.3001 136.7 31.4001 135.3 31.4001C133.9 31.4001 132.8 30.3001 132.8 29.0001C132.8 27.7001 133.9 26.6001 135.3 26.6001C136.6 26.5001 137.8 27.6001 137.8 29.0001Z" fill="white"/>
<path d="M158.6 29.0001C158.6 30.3001 157.5 31.4001 156.1 31.4001C154.7 31.4001 153.6 30.3001 153.6 29.0001C153.6 27.7001 154.7 26.6001 156.1 26.6001C157.5 26.5001 158.6 27.6001 158.6 29.0001Z" fill="white"/>
<path d="M177 31.4001C178.381 31.4001 179.5 30.3256 179.5 29.0001C179.5 27.6746 178.381 26.6001 177 26.6001C175.619 26.6001 174.5 27.6746 174.5 29.0001C174.5 30.3256 175.619 31.4001 177 31.4001Z" fill="white"/>
<path d="M12.5 44.0999C12.5 45.3999 11.4 46.5 10 46.5C8.6 46.5 7.5 45.3999 7.5 44.0999C7.5 42.7999 8.6 41.7 10 41.7C11.4 41.7 12.5 42.7999 12.5 44.0999Z" fill="white"/>
<path d="M33.4 44.0999C33.4 45.3999 32.3 46.5 30.9 46.5C29.5 46.5 28.4 45.3999 28.4 44.0999C28.4 42.7999 29.5 41.7 30.9 41.7C32.3 41.7 33.4 42.7999 33.4 44.0999Z" fill="white"/>
<path d="M54.3 44.0999C54.3 45.3999 53.2 46.5 51.8 46.5C50.4 46.5 49.3 45.3999 49.3 44.0999C49.3 42.7999 50.4 41.7 51.8 41.7C53.1 41.7 54.3 42.7999 54.3 44.0999Z" fill="white"/>
<path d="M75.2 44.0999C75.2 45.3999 74.1 46.5 72.7 46.5C71.3 46.5 70.2 45.3999 70.2 44.0999C70.2 42.7999 71.3 41.7 72.7 41.7C74 41.7 75.2 42.7999 75.2 44.0999Z" fill="white"/>
<path d="M96 44.0999C96 45.3999 94.9 46.5 93.5 46.5C92.1 46.5 91 45.3999 91 44.0999C91 42.7999 92.1 41.7 93.5 41.7C94.9 41.7 96 42.7999 96 44.0999Z" fill="white"/>
<path d="M116.9 44.0999C116.9 45.3999 115.8 46.5 114.4 46.5C113 46.5 111.9 45.3999 111.9 44.0999C111.9 42.7999 113 41.7 114.4 41.7C115.8 41.7 116.9 42.7999 116.9 44.0999Z" fill="white"/>
<path d="M137.8 44.0999C137.8 45.3999 136.7 46.5 135.3 46.5C133.9 46.5 132.8 45.3999 132.8 44.0999C132.8 42.7999 133.9 41.7 135.3 41.7C136.6 41.7 137.8 42.7999 137.8 44.0999Z" fill="white"/>
<path d="M158.6 44.0999C158.6 45.3999 157.5 46.5 156.1 46.5C154.7 46.5 153.6 45.3999 153.6 44.0999C153.6 42.7999 154.7 41.7 156.1 41.7C157.5 41.7 158.6 42.7999 158.6 44.0999Z" fill="white"/>
<path d="M177 46.5C178.381 46.5 179.5 45.4254 179.5 44.0999C179.5 42.7745 178.381 41.7 177 41.7C175.619 41.7 174.5 42.7745 174.5 44.0999C174.5 45.4254 175.619 46.5 177 46.5Z" fill="white"/>
<path d="M12.5 59.2999C12.5 60.5999 11.4 61.6999 10 61.6999C8.6 61.6999 7.5 60.5999 7.5 59.2999C7.5 57.9999 8.6 56.8999 10 56.8999C11.4 56.8999 12.5 57.9999 12.5 59.2999Z" fill="white"/>
<path d="M33.4 59.2999C33.4 60.5999 32.3 61.6999 30.9 61.6999C29.5 61.6999 28.4 60.5999 28.4 59.2999C28.4 57.9999 29.5 56.8999 30.9 56.8999C32.3 56.8999 33.4 57.9999 33.4 59.2999Z" fill="white"/>
<path d="M54.3 59.2999C54.3 60.5999 53.2 61.6999 51.8 61.6999C50.4 61.6999 49.3 60.5999 49.3 59.2999C49.3 57.9999 50.4 56.8999 51.8 56.8999C53.1 56.8999 54.3 57.9999 54.3 59.2999Z" fill="white"/>
<path d="M75.2 59.2999C75.2 60.5999 74.1 61.6999 72.7 61.6999C71.3 61.6999 70.2 60.5999 70.2 59.2999C70.2 57.9999 71.3 56.8999 72.7 56.8999C74 56.8999 75.2 57.9999 75.2 59.2999Z" fill="white"/>
<path d="M96 59.2999C96 60.5999 94.9 61.6999 93.5 61.6999C92.1 61.6999 91 60.5999 91 59.2999C91 57.9999 92.1 56.8999 93.5 56.8999C94.9 56.8999 96 57.9999 96 59.2999Z" fill="white"/>
<path d="M116.9 59.2999C116.9 60.5999 115.8 61.6999 114.4 61.6999C113 61.6999 111.9 60.5999 111.9 59.2999C111.9 57.9999 113 56.8999 114.4 56.8999C115.8 56.8999 116.9 57.9999 116.9 59.2999Z" fill="white"/>
<path d="M137.8 59.2999C137.8 60.5999 136.7 61.6999 135.3 61.6999C133.9 61.6999 132.8 60.5999 132.8 59.2999C132.8 57.9999 133.9 56.8999 135.3 56.8999C136.6 56.8999 137.8 57.9999 137.8 59.2999Z" fill="white"/>
<path d="M158.6 59.2999C158.6 60.5999 157.5 61.6999 156.1 61.6999C154.7 61.6999 153.6 60.5999 153.6 59.2999C153.6 57.9999 154.7 56.8999 156.1 56.8999C157.5 56.8999 158.6 57.9999 158.6 59.2999Z" fill="white"/>
<path d="M177 61.6999C178.381 61.6999 179.5 60.6254 179.5 59.2999C179.5 57.9744 178.381 56.8999 177 56.8999C175.619 56.8999 174.5 57.9744 174.5 59.2999C174.5 60.6254 175.619 61.6999 177 61.6999Z" fill="white"/>
<path d="M12.5 74.5001C12.5 75.8001 11.4 76.9001 10 76.9001C8.6 76.9001 7.5 75.8001 7.5 74.5001C7.5 73.2001 8.6 72.1001 10 72.1001C11.4 72.1001 12.5 73.1001 12.5 74.5001Z" fill="white"/>
<path d="M33.4 74.5001C33.4 75.8001 32.3 76.9001 30.9 76.9001C29.5 76.9001 28.4 75.8001 28.4 74.5001C28.4 73.2001 29.5 72.1001 30.9 72.1001C32.3 72.1001 33.4 73.1001 33.4 74.5001Z" fill="white"/>
<path d="M54.3 74.5001C54.3 75.8001 53.2 76.9001 51.8 76.9001C50.4 76.9001 49.3 75.8001 49.3 74.5001C49.3 73.2001 50.4 72.1001 51.8 72.1001C53.1 72.1001 54.3 73.1001 54.3 74.5001Z" fill="white"/>
<path d="M75.2 74.5001C75.2 75.8001 74.1 76.9001 72.7 76.9001C71.3 76.9001 70.2 75.8001 70.2 74.5001C70.2 73.2001 71.3 72.1001 72.7 72.1001C74 72.1001 75.2 73.1001 75.2 74.5001Z" fill="white"/>
<path d="M96 74.5001C96 75.8001 94.9 76.9001 93.5 76.9001C92.1 76.9001 91 75.8001 91 74.5001C91 73.2001 92.1 72.1001 93.5 72.1001C94.9 72.1001 96 73.1001 96 74.5001Z" fill="white"/>
<path d="M116.9 74.5001C116.9 75.8001 115.8 76.9001 114.4 76.9001C113 76.9001 111.9 75.8001 111.9 74.5001C111.9 73.2001 113 72.1001 114.4 72.1001C115.8 72.1001 116.9 73.1001 116.9 74.5001Z" fill="white"/>
<path d="M137.8 74.5001C137.8 75.8001 136.7 76.9001 135.3 76.9001C133.9 76.9001 132.8 75.8001 132.8 74.5001C132.8 73.2001 133.9 72.1001 135.3 72.1001C136.6 72.1001 137.8 73.1001 137.8 74.5001Z" fill="white"/>
<path d="M158.6 74.5001C158.6 75.8001 157.5 76.9001 156.1 76.9001C154.7 76.9001 153.6 75.8001 153.6 74.5001C153.6 73.2001 154.7 72.1001 156.1 72.1001C157.5 72.1001 158.6 73.1001 158.6 74.5001Z" fill="white"/>
<path d="M177 76.9001C178.381 76.9001 179.5 75.8256 179.5 74.5001C179.5 73.1746 178.381 72.1001 177 72.1001C175.619 72.1001 174.5 73.1746 174.5 74.5001C174.5 75.8256 175.619 76.9001 177 76.9001Z" fill="white"/>
<path d="M12.5 89.7C12.5 91 11.4 92.1 10 92.1C8.6 92.1 7.5 91 7.5 89.7C7.5 88.4 8.6 87.3 10 87.3C11.4 87.2 12.5 88.3 12.5 89.7Z" fill="white"/>
<path d="M33.4 89.7C33.4 91 32.3 92.1 30.9 92.1C29.5 92.1 28.4 91 28.4 89.7C28.4 88.4 29.5 87.3 30.9 87.3C32.3 87.2 33.4 88.3 33.4 89.7Z" fill="white"/>
<path d="M54.3 89.7C54.3 91 53.2 92.1 51.8 92.1C50.4 92.1 49.3 91 49.3 89.7C49.3 88.4 50.4 87.3 51.8 87.3C53.1 87.2 54.3 88.3 54.3 89.7Z" fill="white"/>
<path d="M75.2 89.7C75.2 91 74.1 92.1 72.7 92.1C71.3 92.1 70.2 91 70.2 89.7C70.2 88.4 71.3 87.3 72.7 87.3C74 87.2 75.2 88.3 75.2 89.7Z" fill="white"/>
<path d="M96 89.7C96 91 94.9 92.1 93.5 92.1C92.1 92.1 91 91 91 89.7C91 88.4 92.1 87.3 93.5 87.3C94.9 87.2 96 88.3 96 89.7Z" fill="white"/>
<path d="M116.9 89.7C116.9 91 115.8 92.1 114.4 92.1C113 92.1 111.9 91 111.9 89.7C111.9 88.4 113 87.3 114.4 87.3C115.8 87.2 116.9 88.3 116.9 89.7Z" fill="white"/>
<path d="M137.8 89.7C137.8 91 136.7 92.1 135.3 92.1C133.9 92.1 132.8 91 132.8 89.7C132.8 88.4 133.9 87.3 135.3 87.3C136.6 87.2 137.8 88.3 137.8 89.7Z" fill="white"/>
<path d="M158.6 89.7C158.6 91 157.5 92.1 156.1 92.1C154.7 92.1 153.6 91 153.6 89.7C153.6 88.4 154.7 87.3 156.1 87.3C157.5 87.2 158.6 88.3 158.6 89.7Z" fill="white"/>
<path d="M177 92.1C178.381 92.1 179.5 91.0255 179.5 89.7C179.5 88.3746 178.381 87.3 177 87.3C175.619 87.3 174.5 88.3746 174.5 89.7C174.5 91.0255 175.619 92.1 177 92.1Z" fill="white"/>
<path d="M12.5 104.8C12.5 106.1 11.4 107.2 10 107.2C8.6 107.2 7.5 106.1 7.5 104.8C7.5 103.5 8.6 102.4 10 102.4C11.4 102.4 12.5 103.5 12.5 104.8Z" fill="white"/>
<path d="M33.4 104.8C33.4 106.1 32.3 107.2 30.9 107.2C29.5 107.2 28.4 106.1 28.4 104.8C28.4 103.5 29.5 102.4 30.9 102.4C32.3 102.4 33.4 103.5 33.4 104.8Z" fill="white"/>
<path d="M54.3 104.8C54.3 106.1 53.2 107.2 51.8 107.2C50.4 107.2 49.3 106.1 49.3 104.8C49.3 103.5 50.4 102.4 51.8 102.4C53.1 102.4 54.3 103.5 54.3 104.8Z" fill="white"/>
<path d="M75.2 104.8C75.2 106.1 74.1 107.2 72.7 107.2C71.3 107.2 70.2 106.1 70.2 104.8C70.2 103.5 71.3 102.4 72.7 102.4C74 102.4 75.2 103.5 75.2 104.8Z" fill="white"/>
<path d="M96 104.8C96 106.1 94.9 107.2 93.5 107.2C92.1 107.2 91 106.1 91 104.8C91 103.5 92.1 102.4 93.5 102.4C94.9 102.4 96 103.5 96 104.8Z" fill="white"/>
<path d="M116.9 104.8C116.9 106.1 115.8 107.2 114.4 107.2C113 107.2 111.9 106.1 111.9 104.8C111.9 103.5 113 102.4 114.4 102.4C115.8 102.4 116.9 103.5 116.9 104.8Z" fill="white"/>
<path d="M137.8 104.8C137.8 106.1 136.7 107.2 135.3 107.2C133.9 107.2 132.8 106.1 132.8 104.8C132.8 103.5 133.9 102.4 135.3 102.4C136.6 102.4 137.8 103.5 137.8 104.8Z" fill="white"/>
<path d="M158.6 104.8C158.6 106.1 157.5 107.2 156.1 107.2C154.7 107.2 153.6 106.1 153.6 104.8C153.6 103.5 154.7 102.4 156.1 102.4C157.5 102.4 158.6 103.5 158.6 104.8Z" fill="white"/>
<path d="M177 107.2C178.381 107.2 179.5 106.125 179.5 104.8C179.5 103.474 178.381 102.4 177 102.4C175.619 102.4 174.5 103.474 174.5 104.8C174.5 106.125 175.619 107.2 177 107.2Z" fill="white"/>
<path d="M12.5 120C12.5 121.3 11.4 122.4 10 122.4C8.6 122.4 7.5 121.3 7.5 120C7.5 118.7 8.6 117.6 10 117.6C11.4 117.6 12.5 118.7 12.5 120Z" fill="white"/>
<path d="M33.4 120C33.4 121.3 32.3 122.4 30.9 122.4C29.5 122.4 28.4 121.3 28.4 120C28.4 118.7 29.5 117.6 30.9 117.6C32.3 117.6 33.4 118.7 33.4 120Z" fill="white"/>
<path d="M54.3 120C54.3 121.3 53.2 122.4 51.8 122.4C50.4 122.4 49.3 121.3 49.3 120C49.3 118.7 50.4 117.6 51.8 117.6C53.1 117.6 54.3 118.7 54.3 120Z" fill="white"/>
<path d="M75.2 120C75.2 121.3 74.1 122.4 72.7 122.4C71.3 122.4 70.2 121.3 70.2 120C70.2 118.7 71.3 117.6 72.7 117.6C74 117.6 75.2 118.7 75.2 120Z" fill="white"/>
<path d="M96 120C96 121.3 94.9 122.4 93.5 122.4C92.1 122.4 91 121.3 91 120C91 118.7 92.1 117.6 93.5 117.6C94.9 117.6 96 118.7 96 120Z" fill="white"/>
<path d="M116.9 120C116.9 121.3 115.8 122.4 114.4 122.4C113 122.4 111.9 121.3 111.9 120C111.9 118.7 113 117.6 114.4 117.6C115.8 117.6 116.9 118.7 116.9 120Z" fill="white"/>
<path d="M137.8 120C137.8 121.3 136.7 122.4 135.3 122.4C133.9 122.4 132.8 121.3 132.8 120C132.8 118.7 133.9 117.6 135.3 117.6C136.6 117.6 137.8 118.7 137.8 120Z" fill="white"/>
<path d="M158.6 120C158.6 121.3 157.5 122.4 156.1 122.4C154.7 122.4 153.6 121.3 153.6 120C153.6 118.7 154.7 117.6 156.1 117.6C157.5 117.6 158.6 118.7 158.6 120Z" fill="white"/>
<path d="M177 122.4C178.381 122.4 179.5 121.326 179.5 120C179.5 118.675 178.381 117.6 177 117.6C175.619 117.6 174.5 118.675 174.5 120C174.5 121.326 175.619 122.4 177 122.4Z" fill="white"/>
</g>
</g>
</svg>
