<svg width="36" height="36" viewBox="0 0 36 36" xmlns="http://www.w3.org/2000/svg">
<path d="M32.8203 16.7416L28.0382 12.0315L23.1843 17.4247C23.1843 17.4247 23.6877 18.6832 23.6877 19.9416C23.6877 19.9416 22.8607 19.8337 21.4944 18.7551C20.1281 17.6764 19.2292 16.9573 19.2652 16.8135C19.5169 16.1304 22.1776 16.382 22.1776 16.382L26.8158 11.4562C26.8158 11.4562 26.9596 11.2764 27.1753 11.0966L19.2652 3.33035C18.8697 2.93485 18.3304 2.71912 17.827 2.71912C17.3236 2.71912 16.7843 2.93485 16.3888 3.33035L9.55733 10.018V8.83148C9.55733 8.2562 9.08992 7.75282 8.47868 7.75282H6.89666C6.24947 7.75282 5.7461 8.2562 5.7461 8.90339V13.7933L2.68992 16.7416C2.15059 17.2809 1.97081 18.1079 2.25846 18.827C2.5461 19.5461 3.2652 20.0135 4.02025 20.0135H4.73935V30.5483C4.73935 31.627 5.63823 32.5259 6.71688 32.5259H28.7933C29.8719 32.5259 30.7708 31.627 30.7708 30.5483V20.0135H31.4899C32.2809 20.0135 32.9641 19.5461 33.2517 18.827C33.5394 18.1079 33.3955 17.2809 32.8203 16.7416ZM19.0854 16.9933C19.2652 17.245 20.5596 18.4674 21.4944 19.1865C22.4292 19.9056 23.6877 20.3371 23.6877 20.3371L23.6517 21.236C21.8899 20.445 21.3865 19.9416 20.5236 19.2944C19.6607 18.6472 18.2585 17.1371 18.2585 17.1371L19.0854 16.9933ZM23.2203 25.8023C23.0764 26.1618 22.4292 27.8517 22.0337 28.4629C21.6382 29.0742 20.9551 30.6202 20.3438 30.7641C19.7326 30.9079 17.3236 30.6921 17.5034 30.4764C17.6832 30.2607 18.7618 28.8584 18.618 29.0023C18.4742 29.182 17.0719 30.5843 16.6764 30.4045C16.2809 30.2247 14.7349 29.4337 14.1596 29.0742C13.5483 28.7146 11.6427 27.2405 11.8944 27.1326C12.1461 27.0247 13.6203 26.5573 14.0517 26.3416C14.8787 25.9461 15.6337 25.4427 15.8854 25.2629C15.5259 25.4427 14.0158 25.9461 13.3686 26.1259C12.6495 26.3416 11.3191 26.3775 11.1394 26.2697C10.9596 26.1618 10.4562 25.5506 10.0967 24.9753C9.73711 24.4 9.48542 23.8247 9.12587 22.3146C8.76632 20.7326 8.91014 20.0854 8.91014 20.0854L10.2405 19.9056H8.91014C8.91014 19.9056 8.9461 18.4674 9.19778 18.5393C10.5281 18.8989 12.5416 18.6113 11.7865 18.4674C9.41351 18 9.52138 17.6764 9.52138 17.6764L11.1034 16.0944C14.1236 18.8989 17.5753 17.3169 17.5753 17.3169C17.5753 17.3169 17.827 17.1371 17.9708 17.3528C18.1146 17.5686 18.7978 18.2517 19.1214 18.6113C19.445 18.9708 20.5236 19.7618 21.3865 20.373C22.2495 21.0202 23.4719 21.5236 23.4719 21.5236C24.1551 22.0989 23.3641 25.4427 23.2203 25.8023ZM17.4315 13.0742C15.1304 12.3551 14.8787 12.4629 13.5483 15.3393H13.5124C14.5551 12.3551 14.4832 12.1034 12.3259 11.0247V10.9888C14.627 11.7079 14.8787 11.6 16.209 8.72361H16.245C15.2023 11.7079 15.3101 11.9596 17.4315 13.0742C17.4674 13.0742 17.4674 13.0382 17.4315 13.0742ZM17.5394 15.627C16.5326 15.3034 16.4247 15.3753 15.8495 16.5978C16.3169 15.3034 16.2809 15.1955 15.3461 14.7281C16.3528 15.0517 16.4607 14.9798 17.036 13.7573C16.5686 15.0157 16.6045 15.1236 17.5394 15.627ZM12.5776 13.8652C11.7146 13.5775 11.6068 13.6495 11.1034 14.7281C11.4989 13.5775 11.4629 13.5056 10.636 13.0742C11.4989 13.3618 11.6068 13.2899 12.1101 12.2113C11.7146 13.3259 11.7506 13.4337 12.5776 13.8652Z" fill="currentColor"/>
</svg>
