<svg width="144" height="144" viewBox="0 0 144 144" fill="none" xmlns="http://www.w3.org/2000/svg">
  <path
    d="M14.544 144C10.398 144 6.939 142.614 4.167 139.842C1.395 137.07 0.006 133.608 0 129.456V14.544C0 10.398 1.389 6.939 4.167 4.167C6.945 1.395 10.404 0.006 14.544 0H129.465C133.605 0 137.064 1.389 139.842 4.167C142.62 6.945 144.006 10.404 144 14.544V129.465C144 133.605 142.614 137.064 139.842 139.842C137.07 142.62 133.608 144.006 129.456 144H14.544ZM38.772 112.5H106.614C108.072 112.5 109.134 111.849 109.8 110.547C110.466 109.245 110.376 107.955 109.53 106.677L91.35 82.269C90.57 81.297 89.601 80.811 88.443 80.811C87.291 80.811 86.322 81.297 85.536 82.269L64.908 108.351L52.065 92.826C51.279 91.968 50.337 91.539 49.239 91.539C48.147 91.539 47.208 92.025 46.422 92.997L36.036 106.677C35.064 107.955 34.914 109.245 35.586 110.547C36.258 111.849 37.32 112.5 38.772 112.5ZM40.5 49.5C42.984 49.5 45.105 48.621 46.863 46.863C48.621 45.105 49.5 42.984 49.5 40.5C49.5 38.016 48.621 35.895 46.863 34.137C45.105 32.379 42.984 31.5 40.5 31.5C38.016 31.5 35.895 32.379 34.137 34.137C32.379 35.895 31.5 38.016 31.5 40.5C31.5 42.984 32.379 45.105 34.137 46.863C35.895 48.621 38.016 49.5 40.5 49.5Z"
    fill="#0384C3"
  />
</svg>
