<svg width="40" height="41" viewBox="0 0 40 41" fill="none" xmlns="http://www.w3.org/2000/svg">
<path d="M20.1138 1.08736L39.2709 18.8247C39.4993 19.04 39.6815 19.2989 39.8068 19.5859C39.932 19.8729 39.9977 20.1821 39.9999 20.495C40.0021 20.8079 39.9408 21.118 39.8196 21.4067C39.6984 21.6954 39.5198 21.9569 39.2945 22.1753L20.1374 39.9126C18.733 41.2248 16.4544 40.1938 16.4544 38.249L16.4544 29.7201C16.4544 28.9 15.7852 28.2205 14.9817 28.2205L2.74043 28.2205C1.22058 28.2205 -1.15742e-06 26.9787 -1.08982e-06 25.4322L-6.57608e-07 15.5443C-5.91035e-07 14.0213 1.22058 12.756 2.71687 12.7795L14.9581 12.7795C15.3525 12.7721 15.7281 12.6106 16.0037 12.33C16.2793 12.0493 16.4328 11.6721 16.4308 11.2799L16.4308 2.75096C16.4308 0.806183 18.6859 -0.224784 20.1138 1.08736Z" fill="#A3D9E0"/>
</svg>
