<svg width="280" height="280" viewBox="0 0 280 280" fill="none" xmlns="http://www.w3.org/2000/svg">
<path d="M171.556 53.0262C186.661 42.3119 208.249 43.1876 222.214 55.1032C236.424 67.2204 238.365 87.0255 226.678 101.204C215.666 114.561 195.814 118.963 179.283 112.074L178.384 111.682L161.431 115.29L161.14 115.34L160.714 115.375L160.276 115.359L160.106 115.34L159.68 115.263L159.273 115.131L158.885 114.96L158.591 114.798L158.172 114.499L157.858 114.213L157.575 113.891L157.37 113.6L157.118 113.155L156.955 112.744L156.835 112.306L156.785 112.015L156.75 111.589L156.765 111.151L156.785 110.981L156.862 110.554L156.948 110.275L161.404 96.9029L161.319 96.7634C152.755 82.2438 156.634 64.2444 170.661 53.6811L171.553 53.0301L171.556 53.0262Z" fill="#B2B2B2"/>
<path d="M173.504 76.904H179.312V78.408H173.504V76.904ZM164.848 74.328H172.192V75.448H164.848V74.328ZM164.688 79.896H172.032V81H164.688V79.896ZM175.968 77.608H177.68V81.976H175.968V77.608ZM166.928 82.216H177.104V88.424H175.12V83.656H168.816V88.44H166.928V82.216ZM167.904 84.44H176.064V85.72H167.904V84.44ZM167.904 86.504H176.048V87.944H167.904V86.504ZM166.672 78.04V78.6H170.432V78.04H166.672ZM166.672 76.728V77.272H170.432V76.728H166.672ZM165.264 75.912H171.888V79.4H165.264V75.912ZM167.728 73.4H169.376V81.912H167.728V73.4ZM178.256 73.496L179.04 74.84C177.456 75.304 175.232 75.576 173.392 75.672C173.344 75.304 173.152 74.76 172.976 74.392C174.8 74.232 176.928 73.928 178.256 73.496ZM172.976 74.392H174.656V76.808C174.656 78.44 174.432 80.664 173.296 82.088C172.992 81.816 172.224 81.32 171.824 81.128C172.864 79.848 172.976 78.104 172.976 76.776V74.392ZM183.712 73.208L185.376 73.768C184.464 75.608 182.976 77.432 181.472 78.584C181.28 78.216 180.72 77.384 180.384 77.032C181.696 76.136 182.976 74.712 183.712 73.208ZM183.712 75.096H194.736V76.792H183.248L183.712 75.096ZM181.312 78.824H194.816V80.536H181.312V78.824ZM180.832 82.584H195.168V84.296H180.832V82.584ZM185.84 77.384H187.44V83.528H185.84V77.384ZM183.04 77.384H184.736V83.56H183.04V77.384ZM188.672 77.384H190.272V83.56H188.672V77.384ZM191.488 77.384H193.248V83.56H191.488V77.384ZM185.232 85.256L187.008 85.048C187.216 86.024 187.392 87.304 187.408 88.072L185.52 88.344C185.52 87.56 185.408 86.248 185.232 85.256ZM188.48 85.224L190.288 84.92C190.688 85.864 191.088 87.112 191.232 87.912L189.312 88.28C189.2 87.496 188.848 86.216 188.48 85.224ZM191.744 85.192L193.504 84.472C194.176 85.448 194.992 86.792 195.376 87.64L193.488 88.488C193.184 87.624 192.4 86.232 191.744 85.192ZM182.496 84.6L184.352 85.08C183.904 86.216 183.152 87.608 182.576 88.504L180.688 87.752C181.264 86.984 182.032 85.704 182.496 84.6ZM202.272 77V77.64H205.568V77H202.272ZM200.752 76.04H207.184V78.6H200.752V76.04ZM201.664 81.64V84.712H206.192V81.64H201.664ZM200.208 80.6H207.744V85.768H200.208V80.6ZM203.344 82.904V83.448H204.48V82.904H203.344ZM202.32 82.104H205.584V84.248H202.32V82.104ZM199.456 79.08H208.56V80.12H199.456V79.08ZM203.104 77.976H204.72V79.544H203.104V77.976ZM197.136 73.96H210.912V88.44H209.04V75.528H198.928V88.44H197.136V73.96ZM198.272 86.296H209.984V87.88H198.272V86.296ZM215.632 77.048H224.128V78.984H215.632V77.048ZM222.144 73.416H224.128V78.2H222.144V73.416ZM214.992 73.672H216.928V79.112C216.928 82.376 216.656 85.896 214.224 88.488C213.904 88.024 213.216 87.304 212.784 86.984C214.768 84.792 214.992 81.816 214.992 79.112V73.672ZM215.584 81.08H224.656V88.424H222.64V83H215.584V81.08Z" fill="white"/>
<rect x="45" y="152" width="87.7091" height="3.63636" fill="#F2F2F2"/>
<path fill-rule="evenodd" clip-rule="evenodd" d="M58.1559 102C50.9815 102 45 107.719 45 114.972V152.232H45.2543H88.9802H132.706V114.981C132.694 113.265 132.345 111.568 131.678 109.986C131.01 108.405 130.038 106.971 128.816 105.766C127.595 104.56 126.148 103.607 124.558 102.961C122.968 102.315 121.266 101.989 119.55 102H58.1559ZM45 200.801V155.581H132.706V200.801C132.706 207.291 127.908 212.562 121.743 213.589V218.149C121.743 219.894 121.05 221.567 119.816 222.801C118.582 224.034 116.909 224.727 115.165 224.727C113.42 224.727 111.747 224.034 110.513 222.801C109.28 221.567 108.587 219.894 108.587 218.149V213.764H69.1191V218.149C69.1191 219.894 68.4261 221.567 67.1925 222.801C65.9589 224.034 64.2858 224.727 62.5412 224.727C60.7966 224.727 59.1235 224.034 57.8899 222.801C56.6563 221.567 55.9632 219.894 55.9632 218.149V213.589C52.9176 213.101 50.1439 211.547 48.1363 209.206C46.1286 206.864 45.0172 203.886 45 200.801Z" fill="#999999"/>
<path d="M112.54 121.007C113.568 122.035 114.145 123.429 114.145 124.883V129.268C114.145 130.722 113.568 132.116 112.54 133.144C111.512 134.172 110.117 134.75 108.663 134.75C107.21 134.75 105.815 134.172 104.787 133.144C103.759 132.116 103.182 130.722 103.182 129.268V124.883C103.182 123.429 103.759 122.035 104.787 121.007C105.815 119.979 107.21 119.401 108.663 119.401C110.117 119.401 111.512 119.979 112.54 121.007Z" fill="#F8F8F8"/>
<path d="M75.5971 118.733C76.961 120.133 77.7272 122.032 77.7272 124.013V129.987C77.7272 131.968 76.961 133.867 75.5971 135.267C74.2332 136.668 72.3834 137.455 70.4545 137.455C68.5257 137.455 66.6758 136.668 65.3119 135.267C63.948 133.867 63.1818 131.968 63.1818 129.987V124.013C63.1818 122.032 63.948 120.133 65.3119 118.733C66.6758 117.332 68.5257 116.545 70.4545 116.545C72.3834 116.545 74.2332 117.332 75.5971 118.733Z" fill="#F8F8F8"/>
<rect x="146.212" y="134.121" width="46.6667" height="70" fill="#F2F2F2"/>
<path d="M194.977 134.959C194.963 134.704 194.931 134.45 194.88 134.2C194.826 133.966 194.743 133.741 194.634 133.527C194.537 133.318 194.41 133.124 194.257 132.952C194.091 132.768 193.901 132.609 193.691 132.479C193.291 132.24 192.841 132.094 192.376 132.053C191.795 131.986 191.214 132.002 190.63 132.002L147.267 132.011C146.658 132.038 146.001 132.104 145.472 132.436C145.323 132.527 145.181 132.63 145.048 132.743C144.924 132.853 144.808 132.974 144.704 133.103C144.519 133.334 144.381 133.599 144.297 133.882C144.19 134.232 144.126 134.594 144.107 134.96L144.098 135.172L144.093 135.396V135.638V201.55C144.084 201.924 144.105 202.298 144.153 202.669C144.216 203.052 144.303 203.454 144.512 203.788C144.722 204.122 144.973 204.441 145.319 204.658C145.655 204.873 146.03 205.019 146.423 205.088C146.856 205.155 147.294 205.186 147.733 205.181H191.356C192.179 205.173 193.004 205.134 193.72 204.686C194.436 204.237 194.833 203.456 194.943 202.625C194.99 202.178 195.008 201.728 194.997 201.278V136.56C194.997 136.029 195.01 135.49 194.977 134.959ZM169.546 134.458C169.698 134.458 169.847 134.503 169.974 134.587C170.101 134.672 170.199 134.792 170.258 134.933C170.316 135.073 170.331 135.228 170.302 135.377C170.272 135.526 170.199 135.664 170.091 135.771C169.983 135.879 169.846 135.952 169.696 135.982C169.547 136.011 169.392 135.996 169.251 135.938C169.11 135.88 168.99 135.781 168.905 135.655C168.821 135.528 168.776 135.379 168.776 135.227C168.776 135.023 168.857 134.827 169.001 134.683C169.146 134.539 169.342 134.458 169.546 134.458ZM169.546 203.92C169.216 203.92 168.893 203.822 168.618 203.639C168.343 203.456 168.129 203.195 168.002 202.891C167.876 202.586 167.843 202.25 167.907 201.927C167.972 201.603 168.131 201.306 168.364 201.073C168.598 200.839 168.896 200.68 169.22 200.616C169.544 200.552 169.879 200.585 170.185 200.711C170.49 200.838 170.751 201.051 170.934 201.326C171.118 201.6 171.215 201.923 171.215 202.253C171.214 202.694 171.038 203.118 170.725 203.43C170.412 203.742 169.988 203.917 169.546 203.917V203.92ZM192.504 198.82V198.863V198.892L192.5 198.92V198.928V198.935V198.942V198.949L192.494 198.963L192.489 198.976L192.482 198.989L192.475 199.001V199.008L192.47 199.013V199.019L192.465 199.025L192.456 199.036L192.444 199.045H192.438H192.433H192.427L192.42 199.05L192.395 199.063L192.368 199.073H192.353H192.339H192.325H192.31H146.797H146.782H146.768H146.754H146.74L146.712 199.063L146.686 199.05L146.68 199.045H146.674H146.668H146.662L146.652 199.036L146.642 199.025V199.019L146.636 199.013V199.008V199.001L146.63 198.989L146.623 198.976L146.617 198.963L146.611 198.949V198.942V198.935V198.928V198.92V198.892V198.863V138.33V138.302V138.273V138.266V138.259V138.251V138.244L146.617 138.231L146.623 138.218L146.63 138.205L146.636 138.192V138.186V138.18L146.642 138.175V138.169L146.652 138.158L146.662 138.149L146.668 138.144H146.674L146.68 138.139H146.686L146.712 138.126L146.74 138.116L146.754 138.112H146.768H146.782H146.797H146.826H192.262H192.291H192.306H192.32H192.334L192.349 138.116L192.376 138.126L192.401 138.139H192.408L192.414 138.144H192.419L192.425 138.149L192.437 138.158L192.446 138.169L192.451 138.175V138.18L192.456 138.186V138.192L192.463 138.205L192.47 138.218L192.475 138.231L192.481 138.244V138.251V138.259V138.266V138.273L192.485 138.302V138.33V198.816L192.504 198.82Z" fill="#999999"/>
<rect x="98.6363" y="191.091" width="36.3636" height="25.4545" fill="#F2F2F2"/>
<path d="M135 191.091V216.545H98.6364V191.091H135ZM98.6364 183.818C94.625 183.818 91.3637 187.08 91.3637 191.091V216.545C91.3637 220.557 94.625 223.818 98.6364 223.818H111.966L110.75 227.455H102.273C100.261 227.455 98.6364 229.08 98.6364 231.091C98.6364 233.102 100.261 234.727 102.273 234.727H131.364C133.375 234.727 135 233.102 135 231.091C135 229.08 133.375 227.455 131.364 227.455H122.875L121.659 223.818H135C139.011 223.818 142.273 220.557 142.273 216.545V191.091C142.273 187.08 139.011 183.818 135 183.818H98.6364ZM151.364 183.818C148.352 183.818 145.909 186.261 145.909 189.273V229.273C145.909 232.284 148.352 234.727 151.364 234.727H158.636C161.648 234.727 164.091 232.284 164.091 229.273V189.273C164.091 186.261 161.648 183.818 158.636 183.818H151.364Z" fill="#B2B2B2"/>
<rect x="151.364" y="191.091" width="7.27273" height="3.63636" rx="1.81818" fill="#F2F2F2"/>
<rect x="151.364" y="198.364" width="7.27273" height="3.63636" rx="1.81818" fill="#F2F2F2"/>
<rect x="151.364" y="205.636" width="7.27273" height="3.63636" rx="1.81818" fill="#F2F2F2"/>
<rect x="151.364" y="218.364" width="7.27273" height="7.27273" rx="3.63636" fill="#F2F2F2"/>
<rect x="152.273" y="219.273" width="5.45454" height="5.45454" rx="2.72727" fill="#B2B2B2"/>
<rect x="104.091" y="197.455" width="5.45454" height="5.45454" rx="2.72727" fill="#999999"/>
<rect x="123.182" y="196.545" width="7.27273" height="7.27273" rx="3.63636" fill="#999999"/>
</svg>
