<svg width="120" height="120" viewBox="0 0 120 120" fill="none" xmlns="http://www.w3.org/2000/svg">
<circle cx="60" cy="60" r="60" fill="white"/>
<path d="M91.9288 42.2304V98.8874H35.2718V69.2099V42.2304H39.9932H90.355C90.4674 42.2304 90.5798 42.2304 90.5798 42.2304C90.6922 42.2304 91.9288 42.2304 91.9288 42.2304Z" fill="#FBEEDE"/>
<path d="M36.958 70.7837V43.8042H41.6794H92.0412V42.2304H90.6922C90.5798 42.2304 90.4674 42.2304 90.4674 42.2304H40.1056H35.2718V69.2099V98.9998H36.958V70.7837Z" fill="#D3BCAB"/>
<path d="M46.626 87.5336C48.2 87.5336 49.6615 86.9715 50.8982 86.0721V94.6165L46.626 91.8058L42.3538 94.6165V86.0721C43.5905 87.0839 45.0521 87.5336 46.626 87.5336Z" fill="#CD9B18"/>
<path d="M42.916 87.4211C44.0402 88.3206 45.5018 88.8827 47.1882 88.8827C48.5373 88.8827 49.8864 88.5454 50.8982 87.7584V86.1844C49.774 87.0839 48.3124 87.646 46.626 87.646C44.9396 87.646 43.5905 87.0839 42.3538 86.1844V94.7289L42.8035 94.3916V87.5336H42.916V87.4211Z" fill="#E5AB17"/>
<path d="M53.8202 80.5639C53.8202 82.8122 52.696 84.948 51.0098 86.1846C49.8857 87.0839 48.4243 87.646 46.7381 87.646C45.0518 87.646 43.7029 87.0839 42.4663 86.1846C40.7801 84.948 39.6559 82.8122 39.6559 80.5639C39.6559 76.6293 42.8036 73.3693 46.8505 73.3693C50.8974 73.3693 53.8202 76.5169 53.8202 80.5639Z" fill="#E7AC14"/>
<path d="M40.6677 82.6996C40.6677 78.7651 43.8153 75.5051 47.8622 75.5051C50.2229 75.5051 52.2464 76.6292 53.4829 78.3155C52.5836 75.3927 49.8857 73.2568 46.7381 73.2568C42.8035 73.2568 39.5435 76.4044 39.5435 80.4513C39.5435 82.0252 40.1056 83.4865 40.8925 84.6107C40.7801 84.0486 40.6677 83.3741 40.6677 82.6996Z" fill="#CD9B18"/>
<path d="M40.218 33.3498C41.6794 34.3616 42.5787 35.9354 42.5787 37.734C42.5787 39.6451 41.567 41.3313 40.1056 42.2306H35.2718V69.2101H31V39.4202C31 35.5981 33.8104 32.7878 37.5201 33.0126L40.218 33.3498Z" fill="#DBC8B9"/>
<path d="M32.1241 40.8815C32.1241 37.1718 34.9345 34.3614 38.6442 34.5863L41.1173 34.8111C41.3421 34.9235 41.567 35.1483 41.6794 35.2607C41.3421 34.4738 40.7801 33.7993 40.1056 33.3497L37.52 33.1249C33.8104 32.7876 31 35.7104 31 39.5325V69.21H32.1241V40.8815Z" fill="#0E314C"/>
<path d="M93.6149 34.5862C94.4018 35.3731 94.8515 36.4973 94.8515 37.7338C94.8515 40.0945 93.0528 42.0056 90.6921 42.118H40.1055C41.5669 41.2187 42.5787 39.5325 42.5787 37.6214C42.5787 35.8228 41.6793 34.1366 40.2179 33.2372H90.4673C91.5914 33.3497 92.7156 33.7993 93.6149 34.5862Z" fill="#E5D3C5"/>
<path d="M40.1055 42.2306H41.3422C41.7919 41.4436 42.1292 40.5442 42.2416 39.6448C41.7919 40.7691 41.1174 41.6685 40.1055 42.2306Z" fill="#E2BF7F"/>
<path d="M41.6793 34.8111H90.1301C91.3666 34.8111 92.4908 35.2608 93.2777 36.1601C94.0646 36.947 94.5142 38.0711 94.5142 39.3077V39.4201C94.7391 38.858 94.8515 38.4084 94.8515 37.7339C94.8515 36.4973 94.4018 35.3732 93.6149 34.5863C92.828 33.7994 91.7039 33.2373 90.4673 33.2373H40.218C40.78 33.687 41.3421 34.249 41.6793 34.8111Z" fill="#0E314C"/>
<path d="M73.6055 47.8511H70.7948V50.6618H73.6055V47.8511Z" fill="#0E314C"/>
<path d="M67.8722 47.8511H65.0616V50.6618H67.8722V47.8511Z" fill="#0E314C"/>
<path d="M62.2516 47.8511H59.4409V50.6618H62.2516V47.8511Z" fill="#0E314C"/>
<path d="M56.6308 47.8511H53.8201V50.6618H56.6308V47.8511Z" fill="#0E314C"/>
<path d="M82.1487 57.1815H43.8153C43.4781 57.1815 43.1408 56.8442 43.1408 56.507C43.1408 56.1697 43.4781 55.8325 43.8153 55.8325H82.1487C82.4859 55.8325 82.8232 56.1697 82.8232 56.507C82.8232 56.8442 82.4859 57.1815 82.1487 57.1815Z" fill="#0E314C"/>
<path d="M82.1487 62.8022H43.8153C43.4781 62.8022 43.1408 62.4649 43.1408 62.1277C43.1408 61.7904 43.4781 61.4532 43.8153 61.4532H82.1487C82.4859 61.4532 82.8232 61.7904 82.8232 62.1277C82.8232 62.4649 82.4859 62.8022 82.1487 62.8022Z" fill="#0E314C"/>
<path d="M82.1487 68.5355H55.1692C54.8319 68.5355 54.4947 68.1983 54.4947 67.861C54.4947 67.5238 54.8319 67.1866 55.1692 67.1866H82.1487C82.4859 67.1866 82.8232 67.5238 82.8232 67.861C82.8232 68.1983 82.4859 68.5355 82.1487 68.5355Z" fill="#0E314C"/>
<path d="M82.1486 74.1563H56.6305C56.2932 74.1563 55.956 73.819 55.956 73.4818C55.956 73.1445 56.2932 72.8073 56.6305 72.8073H82.1486C82.4859 72.8073 82.8231 73.1445 82.8231 73.4818C82.8231 73.819 82.4859 74.1563 82.1486 74.1563Z" fill="#0E314C"/>
<path d="M82.1487 79.8894H59.4409C59.1037 79.8894 58.7664 79.5521 58.7664 79.2149C58.7664 78.8776 59.1037 78.5404 59.4409 78.5404H82.1487C82.4859 78.5404 82.8232 78.8776 82.8232 79.2149C82.8232 79.4397 82.4859 79.8894 82.1487 79.8894Z" fill="#0E314C"/>
<path d="M22.9853 43C22.864 43 22.9044 40.8302 22.1765 38.0762C21.7721 36.4489 21.489 35.4474 20.5993 34.5712C19.386 33.3194 17.7684 33.069 17 33.0273C17.6066 32.7769 18.4963 32.3597 19.2647 31.4834C20.3971 30.2316 20.7206 28.8546 21.0846 27.3107C21.3676 26.3093 21.5699 24.8488 21.489 23.0129C21.489 22.7208 21.6507 27.4776 24.3199 29.8561C25.5735 30.9827 27.0699 31.3165 28 31.3999C27.1103 31.692 25.614 32.3179 24.6838 33.8201C24.2794 34.4877 23.9963 35.1136 23.7537 36.7827C23.2279 40.3712 23.1471 43 22.9853 43Z" fill="#FDDD99"/>
</svg>
