<svg width="120" height="120" viewBox="0 0 120 120" fill="none" xmlns="http://www.w3.org/2000/svg">
<circle cx="60" cy="60" r="60" fill="white"/>
<path d="M29.9853 58C29.864 58 29.9044 55.8302 29.1765 53.0762C28.7721 51.4489 28.489 50.4474 27.5993 49.5712C26.386 48.3194 24.7684 48.069 24 48.0273C24.6066 47.7769 25.4963 47.3597 26.2647 46.4834C27.3971 45.2316 27.7206 43.8546 28.0846 42.3107C28.3676 41.3093 28.5699 39.8488 28.489 38.0129C28.489 37.7208 28.6507 42.4776 31.3199 44.8561C32.5735 45.9827 34.0699 46.3165 35 46.3999C34.1103 46.692 32.614 47.3179 31.6838 48.8201C31.2794 49.4877 30.9963 50.1136 30.7537 51.7827C30.2279 55.3712 30.1471 58 29.9853 58Z" fill="#FDDD99"/>
<path d="M75.8394 92.0828C74.6051 92.2414 73.5472 92.2414 72.3129 92.4C71.9603 91.4483 71.6076 90.338 71.255 89.3863C71.255 90.338 71.255 91.2897 71.255 92.4C60.1465 92.4 49.2144 92.4 38.106 92.4C37.7533 91.9242 37.577 91.4483 37.2244 90.9725C37.048 91.2897 36.6954 91.607 36.5191 91.7656C34.4032 91.9242 32.2873 92.0828 30.1714 92.2414C29.9951 91.4483 29.8187 90.8139 29.6424 90.0208C29.4661 90.8139 29.2898 91.4483 29.1134 92.2414C28.2318 92.2414 27.5265 92.0828 26.6449 92.0828C27.1739 90.4966 27.5265 88.5932 27.7028 86.5312C28.2318 81.614 27.5265 77.49 26.6449 74.3176C43.0431 74.3176 59.4412 74.3176 75.8394 74.3176C75.1341 77.1727 74.6051 80.821 74.7815 85.1036C74.9578 87.8001 75.3104 90.0208 75.8394 92.0828Z" fill="#E5D3C5"/>
<path d="M76.192 79.0762H26.2922C25.0579 79.0762 24 78.1245 24 77.0141V73.0487C24 71.9384 25.0579 70.9867 26.2922 70.9867H76.192C77.4263 70.9867 78.4843 71.9384 78.4843 73.0487V77.1728C78.3079 78.2831 77.4263 79.0762 76.192 79.0762Z" fill="#0E314C"/>
<path d="M70.1971 72.2555C68.4338 73.0486 65.26 72.4142 64.731 71.1452C64.2021 70.0349 66.1416 69.0832 66.1416 67.1798C66.1416 64.9591 63.6731 63.2143 63.1441 62.7385C62.0862 62.104 60.1466 60.9937 49.7434 61.3109C41.8088 61.6281 40.3982 62.2626 39.5166 63.0557C37.9297 64.3246 36.6954 66.5453 36.8718 68.7659C37.2244 71.1452 38.9877 72.0969 38.4587 73.0486C37.7534 74.0003 34.5795 74.0003 32.8163 72.7314C30.1714 70.6694 31.2294 65.2764 34.4032 62.104C37.2244 59.4075 41.1035 59.0903 48.6855 58.6144C59.6176 57.9799 66.3179 57.5041 69.8444 61.1523C73.1946 64.6419 73.0183 70.9866 70.1971 72.2555Z" fill="#0E314C"/>
<path d="M71.5959 42.8499L72.236 51.1994C70.9558 63.1479 69.5155 75.2402 68.2353 87.1887C67.9152 89.9238 70.4757 92.3711 73.8362 92.3711H89.5189C92.8795 92.3711 95.4399 90.0678 95.1198 87.1887C94.1597 78.1194 93.1995 69.0501 92.2393 60.1248C93.1995 60.2687 94.6398 60.2687 95.2799 59.5489C96.4001 58.3973 95.1198 56.2379 94.4797 55.0863C91.4392 49.7599 84.238 43.4258 80.2373 40.1147L71.5959 42.8499Z" fill="#E7AC14"/>
<path d="M64.2345 30.9014C66.3148 35.652 68.3952 40.2586 70.4756 45.0092C71.9158 44.8652 73.9961 44.5773 76.2365 43.7136C78.797 42.7059 80.7173 41.5542 81.8375 40.6905C78.797 36.5157 75.5964 32.341 72.5559 28.1662C71.7558 28.0223 70.3155 27.8783 68.7153 28.1662C65.9948 28.886 64.5546 30.4695 64.2345 30.9014Z" fill="#0E314C"/>
<path d="M76.5566 52.9269L73.5161 84.5974C73.3561 87.0447 75.4364 89.348 78.4769 89.6359C79.9172 89.7799 81.5174 89.7799 83.2777 89.6359C83.5978 89.6359 83.9178 89.6359 84.3979 89.492C87.4384 89.204 89.6788 86.9007 89.3588 84.3095C87.9185 73.8006 86.6383 63.2918 85.1981 52.7829C84.5579 50.7675 82.6376 49.4719 80.3972 49.4719C78.3169 49.6159 76.7166 51.0554 76.5566 52.9269Z" fill="#FBEEDE"/>
</svg>
