<svg width="120" height="120" viewBox="0 0 120 120" fill="none" xmlns="http://www.w3.org/2000/svg">
<circle cx="60" cy="60" r="60" fill="white"/>
<mask id="mask0_180_14741" style="mask-type:alpha" maskUnits="userSpaceOnUse" x="0" y="0" width="120" height="97">
<path d="M120 50.5C120 67.0218 113 97 90 97C67 97 73.5073 97 60 97C46.4927 97 20.5 97 20.5 97C5.92664 87.7867 0 67.0218 0 50.5C0 22.6096 26.8629 0 60 0C93.1371 0 120 22.6096 120 50.5Z" fill="white"/>
</mask>
<g mask="url(#mask0_180_14741)">
<path d="M45.3529 32C45.2647 32 45.2941 30.4811 44.7647 28.5534C44.4706 27.4142 44.2647 26.7132 43.6176 26.0998C42.7353 25.2236 41.5588 25.0483 41 25.0191C41.4412 24.8439 42.0882 24.5518 42.6471 23.9384C43.4706 23.0621 43.7059 22.0982 43.9706 21.0175C44.1765 20.3165 44.3235 19.2942 44.2647 18.009C44.2647 17.8045 44.3824 21.1343 46.3235 22.7992C47.2353 23.5879 48.3235 23.8215 49 23.88C48.3529 24.0844 47.2647 24.5226 46.5882 25.5741C46.2941 26.0414 46.0882 26.4795 45.9118 27.6479C45.5294 30.1598 45.4706 32 45.3529 32Z" fill="#FDDD99"/>
<path d="M55.3529 24C55.2647 24 55.2941 22.4811 54.7647 20.5534C54.4706 19.4142 54.2647 18.7132 53.6176 18.0998C52.7353 17.2236 51.5588 17.0483 51 17.0191C51.4412 16.8439 52.0882 16.5518 52.6471 15.9384C53.4706 15.0621 53.7059 14.0982 53.9706 13.0175C54.1765 12.3165 54.3235 11.2942 54.2647 10.009C54.2647 9.80454 54.3824 13.1343 56.3235 14.7992C57.2353 15.5879 58.3235 15.8215 59 15.88C58.3529 16.0844 57.2647 16.5226 56.5882 17.5741C56.2941 18.0414 56.0882 18.4795 55.9118 19.6479C55.5294 22.1598 55.4706 24 55.3529 24Z" fill="#FDDD99"/>
<path d="M30.3195 39.2058C30.3195 39.2058 29.9775 35.1098 25.8725 36.1541C21.7584 37.1983 19.859 39.5749 21.8575 43.0858C23.856 46.5966 26.3856 46.9837 28.8252 43.0858C31.2558 39.1968 30.3195 39.2058 30.3195 39.2058Z" fill="#0E314C"/>
<path d="M27.5108 50.5666C27.5108 50.5666 24.9992 51.2957 24.6841 53.3032C24.6751 53.3032 26.8716 54.1134 27.5108 50.5666Z" fill="#E7AC14"/>
<path d="M27.8439 49.9093C27.8439 49.9093 24.9812 48.9911 23.3878 50.7015C23.3968 50.7015 24.9722 52.8801 27.8439 49.9093Z" fill="#E7AC14"/>
<path d="M29.0261 58.2809L32.6693 58.5728L33.1949 52.0133L29.5517 51.7214L29.0261 58.2809Z" fill="#FFBDAF"/>
<path d="M29.1313 56.3551L25.2874 57.5704C25.2874 57.5704 28.015 59.5509 31.1388 59.4699C34.2625 59.3888 35.6759 57.5974 35.6759 57.5974L32.8312 56.4991" fill="#FFBDAF"/>
<path d="M26.0524 48.8922L37.2151 49.7834C37.8723 49.8374 38.4574 49.3423 38.5114 48.6852C38.5654 48.028 38.0703 47.4429 37.4132 47.3888L26.2504 46.4976C25.5933 46.4436 25.0081 46.9387 24.9541 47.5959C24.9001 48.2531 25.3952 48.8382 26.0524 48.8922Z" fill="#FFBDAF"/>
<path d="M31.2467 54.1135C33.9654 54.3295 36.3509 52.304 36.576 49.5763L36.8281 46.4796C37.0441 43.7609 35.0186 41.3753 32.2909 41.1503C29.5723 40.9342 27.1867 42.9597 26.9616 45.6874L26.7096 48.7842C26.4935 51.5118 28.528 53.8974 31.2467 54.1135Z" fill="#FFBDAF"/>
<path d="M36.1439 46.5516C36.0719 46.5516 35.9999 46.5156 35.9548 46.4526C35.9548 46.4436 35.8108 46.2365 35.5317 46.1195C35.1627 45.9574 34.7306 46.0205 34.2444 46.3085C34.1364 46.3715 34.0014 46.3355 33.9384 46.2275C33.8753 46.1195 33.9114 45.9845 34.0194 45.9214C35.5407 45.0212 36.3239 46.1915 36.3329 46.2005C36.405 46.3085 36.369 46.4436 36.2699 46.5156C36.2249 46.5426 36.1799 46.5516 36.1439 46.5516Z" fill="#0E314C"/>
<path d="M31.0757 46.1376C30.9946 46.1376 30.9226 46.0926 30.8776 46.0205C30.8776 46.0115 30.7426 45.7955 30.4815 45.6604C30.1304 45.4714 29.6893 45.5074 29.1852 45.7505C29.0772 45.8045 28.9421 45.7595 28.8881 45.6514C28.8341 45.5434 28.8791 45.4084 28.9871 45.3544C30.5715 44.5712 31.2647 45.7955 31.2737 45.8135C31.3367 45.9215 31.2917 46.0565 31.1837 46.1196C31.1477 46.1286 31.1117 46.1376 31.0757 46.1376Z" fill="#0E314C"/>
<path d="M31.9939 49.6124C31.8678 49.6124 31.7688 49.5134 31.7688 49.3873C31.7688 49.2613 31.8678 49.1623 31.9939 49.1623L32.9481 49.1533L32.8131 46.5066C32.8041 46.3806 32.9031 46.2726 33.0291 46.2726C33.1551 46.2636 33.2632 46.3626 33.2632 46.4886L33.4072 49.3693C33.4072 49.4323 33.3892 49.4864 33.3442 49.5314C33.2992 49.5764 33.2452 49.6034 33.1821 49.6034L31.9939 49.6124Z" fill="#0E314C"/>
<path d="M34.3974 47.7758C34.3794 48.0009 34.5505 48.199 34.7755 48.217C35.0006 48.235 35.1986 48.0639 35.2166 47.8389C35.2346 47.6138 35.0636 47.4158 34.8385 47.3978C34.6135 47.3798 34.4154 47.5508 34.3974 47.7758Z" fill="#0E314C"/>
<path d="M29.7072 47.3168C29.6892 47.5418 29.8603 47.7399 30.0853 47.7579C30.3104 47.7759 30.5084 47.6048 30.5264 47.3798C30.5444 47.1547 30.3734 46.9567 30.1483 46.9387C29.9323 46.9207 29.7252 47.0917 29.7072 47.3168Z" fill="#0E314C"/>
<path d="M31.9219 41.0513C31.9219 41.0513 28.069 41.5194 26.9437 46.3986C26.9437 46.3986 23.4058 44.094 26.3045 40.6102C29.2663 37.0633 32.21 38.3056 32.7591 38.5217C33.3082 38.7377 31.9219 41.0513 31.9219 41.0513Z" fill="#E7AC14"/>
<path d="M34.0913 50.6476L29.8693 50.4315C29.8693 50.4315 30.9945 52.9522 32.2909 52.4931C33.5782 52.0339 34.0913 50.6476 34.0913 50.6476Z" fill="#FF8489"/>
<path d="M37.6924 45.6064C37.6924 45.6064 33.7404 43.752 27.4659 44.6792C27.4659 44.6792 26.9437 37.9455 32.228 38.0536C37.6924 38.1706 38.6196 45.4894 37.6924 45.6064Z" fill="#0E314C"/>
<path d="M21.7854 103.914C21.8124 101.564 20.9662 96.7569 21.3172 89.1321L24.459 77.8703H37.3862L40.0058 103.797L21.7854 103.914Z" fill="#E7AC14"/>
<path d="M34.2084 56.634L38.9436 58.2994L39.0156 76.1418C39.0156 77.024 38.3854 77.7442 37.6112 77.7442H23.6668C22.8566 77.7442 22.2175 76.97 22.2625 76.0518L23.2077 57.7593L28.492 56.463C28.492 56.463 29.3292 58.3895 31.6788 58.1554C34.0284 57.9213 34.2084 56.634 34.2084 56.634Z" fill="#E7AC14"/>
<path d="M26.7094 56.58C26.7094 56.58 27.3126 60.7661 31.2645 60.7661C35.2165 60.7661 35.1355 56.8051 35.1355 56.8051L37.323 57.4443C37.323 57.4443 36.0087 66.6715 39.0154 70.4524L42.6883 100.448H23.3966L25.6202 73.8013L21.9473 72.1629L22.2623 70.0023L25.2871 70.9746C25.2871 70.9746 27.6006 62.9086 24.6749 57.2642L26.7094 56.58Z" fill="#0E314C"/>
<path d="M22.9197 71.7397C22.9197 72.0008 23.1357 72.2168 23.3968 72.2168C23.6579 72.2168 23.8739 72.0008 23.8739 71.7397C23.8739 71.4787 23.6579 71.2626 23.3968 71.2626C23.1357 71.2716 22.9197 71.4787 22.9197 71.7397Z" fill="#0A1A33"/>
<path d="M19.9489 79.3647L17.1312 71.1997L21.2002 67.0046L18.5445 63.7909L13.2962 70.1374C13.2962 70.1374 12.279 71.2807 13.6833 73.2702L17.6173 80.4629L19.9489 79.3647Z" fill="#FFBDAF"/>
<path d="M23.5678 58.7857C23.5678 58.7857 23.5228 57.5974 23.1177 57.6244C22.3615 57.6784 21.1372 59.3438 21.1372 59.3438C21.1372 59.3438 17.7164 63.4128 17.1403 64.412L20.345 68.5621L22.9017 65.4473C22.9017 65.4473 23.4688 62.1255 23.4688 59.8929" fill="#E7AC14"/>
<path d="M26.0434 90.9956C25.5483 90.9956 25.1432 90.5905 25.1432 90.0953V84.712H14.4936V90.0953C14.4936 90.5905 14.0885 90.9956 13.5933 90.9956C13.0982 90.9956 12.6931 90.5905 12.6931 90.0953V83.8118C12.6931 83.3167 13.0982 82.9116 13.5933 82.9116H26.0434C26.5385 82.9116 26.9436 83.3167 26.9436 83.8118V90.0953C26.9436 90.5995 26.5385 90.9956 26.0434 90.9956Z" fill="#0A1A33"/>
<path d="M26.0434 93.9482C25.5483 93.9482 25.1432 93.5431 25.1432 93.048V83.8207C25.1432 83.3256 25.5483 82.9205 26.0434 82.9205C26.5385 82.9205 26.9436 83.3256 26.9436 83.8207V93.048C26.9436 93.5431 26.5385 93.9482 26.0434 93.9482Z" fill="#0A1A33"/>
<path d="M12.225 90.6894C12.225 90.5003 12.297 90.3383 12.414 90.2123C12.9902 89.4201 15.9159 88.8169 19.4537 88.8169C22.8836 88.8169 25.7463 89.3841 26.4305 90.1402C26.5925 90.2663 26.6915 90.4643 26.6915 90.6894V102.05C26.6915 102.221 26.6285 102.374 26.5295 102.5C26.0974 103.328 23.0906 103.968 19.4447 103.968C15.7178 103.968 12.6571 103.292 12.342 102.437C12.27 102.329 12.225 102.194 12.225 102.05V90.6894Z" fill="#E5D3C5"/>
<path d="M19.4538 92.1657C23.3915 92.1657 26.5836 91.4161 26.5836 90.4913C26.5836 89.5666 23.3915 88.8169 19.4538 88.8169C15.5162 88.8169 12.3241 89.5666 12.3241 90.4913C12.3241 91.4161 15.5162 92.1657 19.4538 92.1657Z" fill="#DABCA5"/>
<path d="M13.7463 74.2784L17.6353 80.751L20.2729 81.0121L18.4905 72.0189L13.7463 74.2784Z" fill="#FF6490"/>
<path d="M17.8514 80.589C17.7254 80.7421 17.6174 80.9221 17.5363 81.1112C17.3383 81.5973 17.3383 82.1374 17.5453 82.6145L18.0675 83.8478C18.0765 83.8658 18.0765 83.8748 18.0855 83.8928L18.6796 85.3152C18.7156 85.4052 18.7696 85.4862 18.8417 85.5493C18.8957 85.5943 18.9587 85.6393 19.0307 85.6663C19.1928 85.7293 19.3638 85.7293 19.5258 85.6663C19.6699 85.6123 19.7779 85.5042 19.8409 85.3782C19.8499 85.3872 19.8589 85.3962 19.8679 85.4052C20.048 85.5673 20.309 85.6213 20.5521 85.5222C20.6961 85.4682 20.8041 85.3602 20.8672 85.2342C20.8762 85.2432 20.8852 85.2522 20.8942 85.2612C21.0742 85.4232 21.3353 85.4772 21.5783 85.3782C21.7764 85.2972 21.9114 85.1171 21.9564 84.9191C22.1185 84.9911 22.2985 85.0001 22.4696 84.9281C22.8026 84.7931 22.9557 84.415 22.8206 84.0819L22.2805 82.7946C22.2715 82.7676 22.2625 82.7406 22.2535 82.7226L21.5063 80.9491C21.2993 80.463 20.9212 80.0939 20.4351 79.8959C20.21 79.8058 19.6879 79.8239 19.4538 79.8148" fill="#FF6490"/>
<path d="M52.5368 57.4443L46.0823 67.7519L43.2106 63.6829L40.0868 66.7166C40.0868 66.7166 44.4709 71.6768 44.939 71.9919C45.4071 72.307 46.7664 72.622 47.4956 71.9919L54.1752 58.4796" fill="#FFBDAF"/>
<path d="M38.0253 58.9388C38.0253 58.9388 38.0703 57.7505 38.4754 57.7775C39.2316 57.8315 40.4559 59.4969 40.4559 59.4969C40.4559 59.4969 43.8767 63.5659 44.4528 64.5652L41.2391 68.7152L38.6824 65.6004C38.6824 65.6004 38.1153 62.2786 38.1153 60.046" fill="#E7AC14"/>
<path d="M52.5368 57.4443L47.6306 64.223L50.9434 66.3655L54.1752 58.4796" fill="#FF6490"/>
<path d="M54.1751 58.7046C54.1301 58.7046 54.0941 58.6956 54.0581 58.6686L52.4197 57.6333C52.3117 57.5703 52.2847 57.4263 52.3477 57.3272C52.4107 57.2192 52.5547 57.1922 52.6538 57.2552L54.2922 58.2905C54.4002 58.3535 54.4272 58.4975 54.3642 58.5965C54.3282 58.6686 54.2562 58.7046 54.1751 58.7046Z" fill="#0A1A33"/>
<path d="M54.0132 58.7856L55.7866 57.6603C56.2367 57.3903 56.3898 56.7961 56.1197 56.337L55.4355 55.2027C55.1655 54.7526 54.5713 54.5996 54.1122 54.8696L52.6629 55.7339C52.4018 55.8239 51.9787 56.436 52.2668 56.9852L52.4738 57.8044" fill="#FF6490"/>
<path d="M54.0131 59.0108C53.9411 59.0108 53.8691 58.9748 53.824 58.9028C53.761 58.7947 53.788 58.6597 53.8961 58.5877L55.6695 57.4624C55.8405 57.3544 55.9576 57.2013 56.0116 57.0033C56.0566 56.8142 56.0296 56.6162 55.9306 56.4452L55.2464 55.3109C55.1474 55.1398 54.9853 55.0228 54.7963 54.9778C54.6072 54.9328 54.4092 54.9598 54.2381 55.0588L52.7888 55.923C52.7708 55.932 52.7618 55.941 52.7438 55.941C52.6898 55.959 52.5547 56.0851 52.4647 56.2921C52.4017 56.4362 52.3567 56.6522 52.4737 56.8773C52.4827 56.8953 52.4917 56.9133 52.4917 56.9223L52.6988 57.7415C52.7258 57.8585 52.6538 57.9845 52.5367 58.0115C52.4197 58.0385 52.2937 57.9665 52.2667 57.8495L52.0596 57.0483C51.9156 56.7602 51.9156 56.4362 52.0416 56.1121C52.1586 55.833 52.3657 55.5989 52.5637 55.5179L53.9951 54.6627C54.2651 54.5007 54.5892 54.4557 54.8953 54.5277C55.2014 54.6087 55.4624 54.7978 55.6245 55.0678L56.3086 56.2021C56.4707 56.4722 56.5157 56.7962 56.4437 57.1023C56.3627 57.4084 56.1736 57.6695 55.9035 57.8315L54.1301 58.9748C54.0941 59.0018 54.0491 59.0108 54.0131 59.0108Z" fill="#FF6490"/>
<path d="M47.9628 35.7677L47.83 37.5633L63.7388 38.7404L63.8716 36.9448L47.9628 35.7677Z" fill="#0A1A33"/>
<path d="M50.4484 110.206C50.4214 110.206 50.4034 110.206 50.3764 110.206C49.8813 110.17 49.5122 109.738 49.5482 109.243L54.8775 38.6028C54.9135 38.1077 55.3456 37.7386 55.8407 37.7746C56.3359 37.8106 56.705 38.2427 56.6689 38.7378L51.3396 109.378C51.3126 109.846 50.9165 110.206 50.4484 110.206Z" fill="#475366"/>
<path d="M63.8257 39.584C63.7987 39.584 63.7807 39.584 63.7537 39.584L47.7477 38.3687C47.2526 38.3327 46.8835 37.9005 46.9195 37.4054C46.9555 36.9103 47.3877 36.5412 47.8828 36.5772L63.8887 37.7835C64.3838 37.8195 64.7529 38.2516 64.7169 38.7468C64.6809 39.2239 64.2848 39.584 63.8257 39.584Z" fill="#475366"/>
<path d="M54.6523 56.4001L56.3717 55.3649C56.5607 55.2028 56.5878 54.9328 56.4527 54.7617C56.3357 54.6087 56.1196 54.5547 55.9306 54.6357C55.3545 54.9778 54.7783 55.3199 54.2112 55.671C54.0401 55.806 53.9861 56.04 54.0761 56.2111C54.1662 56.4091 54.4182 56.4992 54.6523 56.4001Z" fill="#FF6490"/>
<path d="M54.4633 56.6611C54.2203 56.6611 53.9862 56.5351 53.8692 56.3101C53.7342 56.04 53.8152 55.6889 54.0672 55.4909C54.0762 55.4819 54.0852 55.4819 54.0942 55.4729L55.8137 54.4376C55.8227 54.4286 55.8317 54.4286 55.8497 54.4196C56.1377 54.3026 56.4618 54.3926 56.6329 54.6176C56.8399 54.8877 56.7949 55.2928 56.5158 55.5269C56.5068 55.5359 56.4978 55.5449 56.4798 55.5539L54.7604 56.5981C54.7514 56.6071 54.7424 56.6071 54.7334 56.6161C54.6434 56.6431 54.5534 56.6611 54.4633 56.6611ZM54.3373 55.8509C54.2563 55.923 54.2293 56.031 54.2743 56.112C54.3193 56.202 54.4363 56.238 54.5534 56.202L56.2368 55.1938C56.3178 55.1128 56.3358 54.9867 56.2818 54.9057C56.2278 54.8427 56.1287 54.8157 56.0297 54.8427L54.3373 55.8509Z" fill="#FF6490"/>
<path d="M55.5075 57.9214L57.0289 57.0122C57.1279 56.8682 57.1279 56.6611 57.0289 56.4991C56.9299 56.346 56.7588 56.256 56.5878 56.274C56.0837 56.5801 55.5705 56.8862 55.0664 57.1832C54.8864 57.3723 54.8954 57.6693 55.0484 57.8314C55.1655 57.9484 55.3455 57.9844 55.5075 57.9214Z" fill="#FF6490"/>
<path d="M55.3455 58.1735C55.1745 58.1735 55.0124 58.1105 54.8954 57.9935C54.6434 57.7414 54.6524 57.3003 54.9044 57.0303C54.9224 57.0122 54.9314 57.0032 54.9494 56.9942L56.4708 56.085C56.4978 56.067 56.5338 56.058 56.5608 56.058C56.8129 56.031 57.074 56.166 57.209 56.3911C57.353 56.6252 57.353 56.9222 57.209 57.1473C57.191 57.1743 57.164 57.2013 57.137 57.2103L55.6156 58.1195C55.6066 58.1285 55.5886 58.1285 55.5796 58.1375C55.5076 58.1645 55.4266 58.1735 55.3455 58.1735ZM55.2105 57.3633C55.1295 57.4624 55.1475 57.6064 55.2105 57.6784C55.2555 57.7234 55.3365 57.7414 55.4085 57.7234L56.8579 56.8592C56.8849 56.7872 56.8759 56.7062 56.8309 56.6342C56.7859 56.5621 56.7229 56.5171 56.6508 56.5171L55.2105 57.3633Z" fill="#FF6490"/>
<path d="M55.0843 57.1562L56.7587 56.1569C56.8758 55.9679 56.8668 55.7248 56.7317 55.5718C56.5787 55.3918 56.3446 55.4188 56.3176 55.4188C55.7595 55.7518 55.2013 56.0849 54.6432 56.418C54.5352 56.562 54.5172 56.7601 54.6072 56.9131C54.6972 57.0842 54.8863 57.1832 55.0843 57.1562Z" fill="#FF6490"/>
<path d="M55.0215 57.3813C54.7694 57.3813 54.5263 57.2463 54.4093 57.0212C54.2833 56.7872 54.3103 56.4991 54.4633 56.283C54.4813 56.256 54.4993 56.238 54.5263 56.22L56.2007 55.2208C56.2278 55.2028 56.2638 55.1938 56.2908 55.1938C56.3538 55.1848 56.6779 55.1668 56.8939 55.4188C57.092 55.6529 57.11 55.995 56.9389 56.274C56.9209 56.301 56.8939 56.328 56.8669 56.346L55.1925 57.3453C55.1655 57.3633 55.1385 57.3723 55.1115 57.3723C55.0845 57.3813 55.0485 57.3813 55.0215 57.3813ZM54.8054 56.5891C54.7694 56.6611 54.7694 56.7421 54.8054 56.8142C54.8414 56.8862 54.9314 56.9402 55.0125 56.9402L56.5878 55.995C56.6328 55.8959 56.6238 55.7879 56.5608 55.7249C56.5068 55.6619 56.4258 55.6529 56.3808 55.6529L54.8054 56.5891Z" fill="#FF6490"/>
<path d="M54.3283 55.1399L56.0477 54.1046C56.2728 53.9156 56.3088 53.6005 56.1467 53.4115C56.0207 53.2584 55.7776 53.2134 55.5706 53.3035C55.0125 53.6725 54.4453 54.0326 53.8872 54.4017C53.7612 54.5368 53.7161 54.7168 53.7702 54.8698C53.8512 55.0679 54.0852 55.1939 54.3283 55.1399Z" fill="#FF6490"/>
<path d="M54.2112 55.3738C53.9231 55.3738 53.653 55.2028 53.563 54.9417C53.482 54.7076 53.545 54.4466 53.725 54.2485C53.734 54.2305 53.752 54.2215 53.7701 54.2125L55.4535 53.1143C55.4625 53.1053 55.4715 53.1053 55.4805 53.0963C55.7775 52.9612 56.1286 53.0332 56.3177 53.2583C56.4347 53.3933 56.4887 53.5644 56.4707 53.7534C56.4527 53.9515 56.3537 54.1405 56.1916 54.2755C56.1826 54.2845 56.1736 54.2845 56.1646 54.2935L54.4452 55.3288C54.4272 55.3378 54.4002 55.3468 54.3822 55.3558C54.3192 55.3648 54.2652 55.3738 54.2112 55.3738ZM54.0401 54.5726C53.9861 54.6446 53.9681 54.7256 53.9861 54.7887C54.0131 54.8697 54.1211 54.9327 54.2472 54.9147L55.9216 53.9155C55.9846 53.8614 56.0206 53.7894 56.0296 53.7084C56.0386 53.6454 56.0206 53.5824 55.9846 53.5464C55.9216 53.4743 55.7955 53.4473 55.6875 53.4923L54.0401 54.5726Z" fill="#FF6490"/>
<path d="M52.1857 56.6701C52.1857 56.6701 52.2037 55.5989 52.5097 55.0497C53.0139 54.1585 53.572 54.6086 53.698 54.7346C53.8241 54.8517 54.9043 56.004 54.9043 56.004C54.9043 56.031 54.9133 56.202 54.7873 56.328C54.6703 56.4451 54.4902 56.4721 54.3282 56.4091C54.0581 56.22 53.7791 56.022 53.509 55.8329C53.527 56.22 53.536 56.5981 53.554 56.9852" fill="#FF6490"/>
<path d="M53.5541 57.2103C53.4371 57.2103 53.338 57.1113 53.329 56.9943L53.284 55.842C53.284 55.761 53.329 55.68 53.401 55.635C53.4731 55.5899 53.5721 55.5989 53.6351 55.644L54.4363 56.2021C54.5083 56.2291 54.5893 56.2111 54.6343 56.1661C54.6614 56.1391 54.6704 56.1121 54.6794 56.0851C54.2473 55.626 53.6351 54.9778 53.5451 54.8968C53.4821 54.8428 53.329 54.7167 53.158 54.7347C52.9689 54.7617 52.8069 54.9778 52.7079 55.1578C52.4828 55.5629 52.4198 56.3821 52.4108 56.6702C52.4108 56.7962 52.3118 56.8953 52.1857 56.8953C52.0597 56.8953 51.9607 56.7872 51.9607 56.6702C51.9607 56.6252 51.9787 55.5359 52.3118 54.9418C52.5278 54.5547 52.7889 54.3386 53.086 54.2936C53.4371 54.2396 53.7161 54.4467 53.8512 54.5727C53.9772 54.6897 54.9584 55.734 55.0665 55.851C55.1025 55.887 55.1205 55.941 55.1295 55.986C55.1385 56.0581 55.1385 56.3011 54.9494 56.4812C54.7694 56.6612 54.4903 56.7062 54.2473 56.6072C54.2292 56.5982 54.2202 56.5892 54.2022 56.5802L53.7521 56.2651L53.7791 56.9673C53.7791 57.1023 53.6891 57.2103 53.5541 57.2103Z" fill="#FF6490"/>
<path d="M100.141 90.9325H81.7941C81.254 90.9325 80.8129 90.4914 80.8129 89.9513L81.8031 56.058C81.8031 55.5179 82.2442 55.0768 82.7843 55.0768L89.9591 55.6799L98.4662 55.4008C99.0063 55.4008 99.4474 55.8419 99.4474 56.3821L101.122 89.9513C101.122 90.4914 100.681 90.9325 100.141 90.9325Z" fill="#E7AC14"/>
<path d="M84.3688 61.9094L81.3711 71.9739C80.8939 73.6933 79.1025 74.7016 77.3831 74.2245C75.6637 73.7473 74.6554 71.9559 75.1325 70.2365L78.7154 57.3453C79.1925 55.6259 80.984 54.6177 82.7034 55.0948" fill="#E7AC14"/>
<path d="M76.3388 73.7113C75.7357 73.3872 75.4476 73.1261 74.6194 72.0909L67.8588 60.6581C67.2556 59.6318 66.8595 58.0114 68.0298 57.6513C69.2001 57.2823 69.8302 58.1105 70.8205 59.1187L79.3996 68.8051" fill="#E7AC14"/>
<path d="M70.1181 67.4907L66.0761 58.5425C64.6178 58.6055 63.4745 56.472 62.9254 55.7608L59.9546 53.6453C59.4955 53.3393 59.9546 52.6101 60.4408 52.8531L63.2134 54.5185C62.5383 53.8254 60.6928 51.8989 59.9996 51.4038C59.5495 51.0617 60.0807 50.3505 60.5488 50.6656L64.0686 53.2042L61.1609 49.4143C60.9899 49.2252 60.9809 48.9462 61.1339 48.7481C61.323 48.5051 61.6831 48.4601 61.9081 48.6581L65.518 52.169C65.392 51.7189 62.5023 48.325 63.0784 47.8479C63.2584 47.6049 63.6725 47.4968 63.9156 47.8839C63.9246 47.9019 68.2817 53.0242 68.2997 53.0332C68.6958 52.385 69.2449 51.4668 69.569 50.9267C69.9021 50.4586 70.6943 50.8096 70.5502 51.3588C70.3162 52.0879 69.641 56.49 68.9658 56.9401L74.7362 62.2244L70.1181 67.4907Z" fill="#FF6490"/>
<path d="M94.8112 55.2296C94.8112 55.2296 95.2613 59.1636 90.5081 59.1636C85.7639 59.1636 86.052 54.8335 86.052 54.8335L83.4504 54.5995C83.4504 54.5995 85.2778 66.0503 81.974 70.4524L79.9935 105.399H103.192L98.349 74.3503L102.634 72.4419L102.076 69.9302L98.5201 71.0555C98.5201 71.0555 95.4053 62.5304 97.5298 55.1396L94.8112 55.2296Z" fill="#0E314C"/>
<path d="M101.437 71.9558C101.455 72.2619 101.221 72.5049 100.906 72.5049C100.591 72.5049 100.32 72.2619 100.302 71.9558C100.284 71.6497 100.519 71.4067 100.834 71.4067C101.14 71.4067 101.41 71.6497 101.437 71.9558Z" fill="#0A1A33"/>
<path d="M89.9769 57.4353C88.6176 57.4353 87.5013 56.319 87.5013 54.9597V51.5749C87.5013 50.2155 88.6176 49.0993 89.9769 49.0993C91.3363 49.0993 92.4526 50.2155 92.4526 51.5749V54.9597C92.4526 56.319 91.3453 57.4353 89.9769 57.4353Z" fill="#FFBDAF"/>
<path d="M95.4553 46.4872C98.3064 43.6361 98.3064 39.0135 95.4553 36.1624C92.6042 33.3113 87.9816 33.3113 85.1305 36.1624C82.2794 39.0135 82.2794 43.6361 85.1305 46.4872C87.9816 49.3383 92.6042 49.3383 95.4553 46.4872Z" fill="#0A1A33"/>
<path d="M90.3101 48.8473C89.941 48.8473 89.5629 48.8203 89.1848 48.7663C87.1953 48.4692 85.4489 47.4159 84.2516 45.8045C83.0543 44.1931 82.5592 42.2037 82.8562 40.2232C83.4684 36.1092 87.3033 33.2735 91.3993 33.8856C95.5043 34.4978 98.34 38.3327 97.7279 42.4287C97.4308 44.4182 96.3776 46.1646 94.7662 47.3619C93.4608 48.3342 91.9125 48.8473 90.3101 48.8473ZM90.2921 34.2457C86.8532 34.2457 83.8195 36.7753 83.3064 40.2772C83.0273 42.1496 83.4954 44.0131 84.6207 45.5255C85.746 47.0378 87.3934 48.0281 89.2658 48.3071C91.1383 48.5862 93.0017 48.1181 94.5141 46.9928C96.0355 45.8675 97.0167 44.2201 97.2958 42.3477C97.8719 38.4947 95.1983 34.8849 91.3453 34.3087C90.9852 34.2727 90.6342 34.2457 90.2921 34.2457Z" fill="#0A1A33"/>
<path d="M95.9815 47.8479L82.8923 45.9034C82.2081 45.8044 81.731 45.1562 81.83 44.4721C81.9291 43.7879 82.5772 43.3108 83.2614 43.4098L96.3506 45.3543C97.0347 45.4533 97.5119 46.1015 97.4128 46.7856C97.3138 47.4698 96.6657 47.9469 95.9815 47.8479Z" fill="#FFBDAF"/>
<path d="M88.3926 52.7721C84.9447 52.259 82.5501 49.0182 83.0633 45.5793L83.5944 41.9965C84.0265 39.1068 86.7362 37.0993 89.6259 37.5314L91.5163 37.8104C94.4781 38.2515 96.5396 41.0332 96.0985 43.995L95.5853 47.4338C95.0812 50.8816 91.8404 53.2852 88.3926 52.7721Z" fill="#FFBDAF"/>
<path d="M88.2846 38.1436C88.2576 37.6575 89.0047 38.9448 91.3093 40.2861C93.6049 41.6274 97.5478 41.7175 97.5478 41.7175C97.5478 41.7175 98.5741 32.3372 88.6717 32.8053C88.6717 32.8053 85.4129 31.806 83.4594 35.2989C81.5059 38.7918 82.9012 41.7805 85.7639 40.1961C85.7639 40.1961 87.4474 42.0416 89.7159 40.2861C89.7069 40.2861 88.4196 40.7632 88.2846 38.1436Z" fill="#0A1A33"/>
<path d="M97.5479 41.9425C97.3769 41.9425 93.524 41.8345 91.2014 40.4751C89.8871 39.7099 89.0589 38.9447 88.6178 38.5396C88.5907 38.5126 88.5727 38.4946 88.5457 38.4766C88.6448 39.4489 88.9238 39.836 89.1489 39.989C89.3919 40.16 89.635 40.079 89.644 40.07C89.752 40.034 89.8601 40.079 89.9141 40.178C89.9681 40.2771 89.9411 40.3941 89.8601 40.4661C88.0596 41.8705 86.4392 41.1413 85.728 40.4751C84.6388 41.0243 83.6485 40.9792 83.0094 40.3311C82.0191 39.3408 82.1272 37.2253 83.2704 35.1908C85.1699 31.797 88.3117 32.4812 88.7078 32.5802C91.7685 32.4452 94.1091 33.2193 95.6755 34.8848C98.2051 37.5764 97.8 41.5734 97.782 41.7354C97.755 41.8615 97.665 41.9425 97.5479 41.9425ZM88.3297 37.8105C88.4737 37.8105 88.6268 37.9545 88.9148 38.2156C89.3469 38.6117 90.1481 39.3498 91.4174 40.097C93.3349 41.2223 96.4857 41.4474 97.3319 41.4924C97.3769 40.6462 97.4039 37.4054 95.3334 35.1998C93.857 33.6244 91.6155 32.9043 88.6808 33.0393C88.6538 33.0393 88.6268 33.0393 88.5998 33.0303C88.4737 32.9943 85.485 32.1301 83.6485 35.4159C82.4332 37.5854 82.6223 39.3228 83.3155 40.025C83.8466 40.5561 84.6748 40.5471 85.647 40.007C85.737 39.953 85.8541 39.971 85.9261 40.052C85.9801 40.115 87.2584 41.4564 89.0499 40.4571C88.9958 40.4301 88.9508 40.4031 88.8968 40.3761C88.4017 40.052 88.1136 39.3048 88.0596 38.1616C88.0506 37.9635 88.1406 37.8825 88.2127 37.8465C88.2577 37.8195 88.2937 37.8105 88.3297 37.8105Z" fill="#0E314C"/>
<path d="M86.9792 42.6807C86.9252 42.6807 86.8622 42.6717 86.8172 42.6357C86.151 42.2936 85.3588 42.1766 84.6206 42.3296C84.4226 42.3657 84.2335 42.2396 84.1975 42.0506C84.1615 41.8525 84.2785 41.6635 84.4766 41.6275C85.3768 41.4384 86.331 41.5735 87.1502 41.9966C87.3303 42.0866 87.3933 42.3026 87.3033 42.4827C87.2313 42.6087 87.1052 42.6807 86.9792 42.6807Z" fill="#0A1A33"/>
<path d="M93.3708 43.4548C93.3258 43.4548 93.2718 43.4458 93.2268 43.4278C91.4894 42.6716 90.022 43.0047 90.013 43.0137C89.815 43.0587 89.6259 42.9417 89.5809 42.7437C89.5359 42.5546 89.6529 42.3566 89.851 42.3116C89.923 42.2936 91.5704 41.9245 93.5239 42.7707C93.7039 42.8517 93.7939 43.0587 93.7129 43.2478C93.6409 43.3738 93.5059 43.4548 93.3708 43.4548Z" fill="#0A1A33"/>
<path d="M87.6093 47.848C86.8171 47.848 86.286 47.56 86.259 47.5509C86.205 47.5149 86.178 47.4519 86.196 47.3889L87.5823 43.473C87.6093 43.4009 87.6813 43.3649 87.7534 43.3919C87.8254 43.4189 87.8614 43.491 87.8344 43.563L86.4841 47.3619C86.7271 47.4699 87.4023 47.695 88.2485 47.5149C88.3205 47.4969 88.3925 47.5419 88.4105 47.623C88.4285 47.695 88.3835 47.767 88.3025 47.785C88.0684 47.821 87.8254 47.848 87.6093 47.848Z" fill="#0A1A33"/>
<path d="M85.728 43.9681C85.71 44.2291 85.4849 44.4272 85.2239 44.4092C84.9628 44.3912 84.7647 44.1661 84.7828 43.905C84.8008 43.644 85.0258 43.4459 85.2869 43.4639C85.5389 43.4819 85.737 43.707 85.728 43.9681Z" fill="#0A1A33"/>
<path d="M90.6523 44.4902C90.6343 44.7512 90.4092 44.9493 90.1482 44.9313C89.8871 44.9133 89.6891 44.6882 89.7071 44.4272C89.7251 44.1661 89.9501 43.9681 90.2112 43.9861C90.4723 44.0041 90.6703 44.2291 90.6523 44.4902Z" fill="#0A1A33"/>
<path d="M85.4128 48.5231L91.3093 48.7572C91.3093 48.7572 90.5531 51.4218 88.4916 50.9717C86.4301 50.5036 85.4128 48.5231 85.4128 48.5231Z" fill="#FF8D91"/>
<path d="M98.754 55.4548C100.509 55.7699 101.626 57.3993 101.77 57.6333C103.669 60.5771 105.578 63.5298 107.477 66.4735C108.449 67.9679 108.026 69.9844 106.532 70.9566C105.038 71.9288 103.021 71.5057 102.049 70.0114L97.5387 63.0977" fill="#E7AC14"/>
<path d="M106.694 70.8216L95.333 77.6903C94.2978 78.3565 92.9114 78.0504 92.2543 77.0152C91.5881 75.9799 91.8942 74.5936 92.9294 73.9364L102.787 67.1217" fill="#E7AC14"/>
<path d="M101.059 75.4668L91.5613 79.0226L88.5636 77.0872L97.9619 69.1202L101.059 75.4668Z" fill="#FF6490"/>
<path d="M91.4622 78.6806C91.4712 78.9506 91.4352 79.2207 91.3542 79.4907C91.1561 80.1749 90.706 80.7331 90.0849 81.0661L88.5095 81.9303C88.4915 81.9393 88.4735 81.9483 88.4555 81.9573L86.655 82.9656C86.538 83.0286 86.412 83.0646 86.286 83.0736C86.1869 83.0826 86.0879 83.0646 85.9889 83.0376C85.7638 82.9746 85.5838 82.8216 85.4668 82.6235C85.3677 82.4435 85.3407 82.2454 85.3677 82.0564C85.3497 82.0564 85.3317 82.0654 85.3227 82.0654C84.9986 82.0834 84.6746 81.9213 84.5035 81.6153C84.4045 81.4352 84.3775 81.2372 84.4045 81.0481C84.3865 81.0481 84.3685 81.0571 84.3595 81.0571C84.0354 81.0751 83.7113 80.9131 83.5403 80.607C83.3962 80.355 83.4052 80.0579 83.5223 79.8058C83.2972 79.7518 83.0902 79.6078 82.9731 79.3827C82.7391 78.9596 82.8921 78.4375 83.3152 78.2034L84.9536 77.3032C84.9806 77.2852 85.0166 77.2672 85.0437 77.2492L87.3122 76.0069C87.9334 75.6648 88.6445 75.5928 89.3287 75.7908C89.6348 75.8809 90.1749 76.34 90.427 76.52" fill="#FF6490"/>
</g>
</svg>
